Patient4_TMGait_0pt5_02_right_43_EMG.mot
version=1
nRows=23
nColumns=33
inDegrees=no
endheader
time	1LAddLong	2LGlutMax	3LGlutMed	4LIliopsoas	5LSemiMemb	6LBicFemLong	7LRecFem	8LVastMed	9LVastLat	10LGasMed	11LTibAnt	12lTibPost	13LPeroneusLong	14LSol	15LExtDigLong	16LFlexDigLong	17RAddLong	18RGlutMax	19RGlutMed	20RIliopsoas	21RSemiMemb	22RBicFemLong	23RRecFem	24RVastMed	25RVastLat	26RGasMed	27RTibAnt	28RTibPost	29RPeroneusLong	30RSol	31RExtDigLong	32RFlexDigLong
57.45	0.005188	-0.022736	-0.015869	0.014954	0.043945	-0.06897	0.13977	0.010529	0.021057	-0.55878	0.036011	-0.14587	-0.70007	0.004425	0.002136	0.029602	-0.009155	-0.033264	0.015717	-0.020599	-0.091858	0.17929	-0.009308	-0.081024	-0.01358	0.002136	-0.099792	-0.00351	-0.12039	0.004578	-0.000458	-0.003662
57.451	-0.000305	-0.031891	0.07843	0.009766	0.003204	-0.028839	0.10269	0.001526	0.056763	-0.3241	0.001221	-0.14923	0.36743	0.12482	0.003357	0.046844	-0.018005	-0.00412	0.041504	-0.010529	0.038605	0.12589	0.2272	-0.085297	-0.016327	-0.003662	-0.057068	-0.003967	0.12375	0.030518	-0.003815	-0.004578
57.452	-0.000916	-0.020599	-0.003052	0.008087	-0.000458	0.009766	0.03891	-0.001373	0.06073	0.042419	-0.012817	0.12344	0.020599	0.15091	0.16785	-0.14954	-0.032959	-0.011597	-0.032654	0.065002	0.121	0.12329	0.22156	-0.059967	-0.037079	-0.000305	0.059967	-0.006256	-0.14206	0.015717	-0.003357	-0.004425
57.453	0.008545	-0.039215	0.011597	0.015411	-0.001831	-0.010376	0.092163	0.000458	-0.050507	0.50354	-0.003357	0.27863	0.56839	0.015411	0.15076	0.15396	-0.040894	-0.011292	-0.26291	0.037689	0.067902	0.082855	0.2211	-0.099335	-0.026855	0.005035	0.022278	-0.005798	-0.15396	-0.015411	-0.003662	-0.008698
57.454	-0.000916	-0.047607	0.020294	0.030975	0.023346	-0.007629	0.10834	0.006104	-0.021973	0.4628	-0.011444	-0.35538	0.30273	-0.069733	0.071259	0.23743	-0.021667	-0.050964	-0.066833	-0.021667	0.037537	0.046997	0.16663	-0.090179	-0.010223	-0.003204	-0.018616	-0.003967	-0.014954	0.031128	-0.003662	-0.006104
57.455	0.007172	-0.042572	0.009155	0.020142	0.018768	0.024109	0.12909	0.015411	-0.011902	0.34149	0.022583	-0.050507	-0.38177	0.074463	0.011139	-0.10773	-0.019684	-0.055695	0.42541	-0.048981	-0.018158	-0.002441	0.22049	-0.11246	0.009308	-0.020905	0.032806	-0.002441	0.10681	0.07309	-0.004883	0.000763
57.456	0.003967	-0.023041	0.03952	0.006256	0.011139	0.021057	0.099487	0.014038	0.003357	0.35217	0.027771	-0.088501	-0.96374	0.27176	0.023651	-0.19486	-0.002899	-0.066986	0.32944	-0.069122	-0.052948	-0.057678	0.21652	-0.072784	0.007172	-0.027771	0.008545	-0.002899	0.22446	0.025177	0.000458	-0.010529
57.457	0.009155	-0.023499	0.013123	0.002594	0.013885	-0.000458	0.061646	0.021057	-0.013275	0.17029	-0.003662	-0.09964	0.11231	0.12421	0.065918	-0.10437	0.018463	-0.023651	0.11963	-0.080414	-0.063171	-0.068665	0.25787	-0.02243	0.004272	-0.022125	0.068817	-0.009003	0.13733	-0.032959	-0.002899	-0.008545
57.458	0.015259	-0.040741	-0.031281	0.010071	0.030518	-0.016632	0.040283	0.025635	-0.014801	0.16022	0.0177	-0.0914	0.49927	-0.15564	0.008545	0.044403	0.030518	-0.046539	-0.018768	-0.054016	-0.28748	-0.060425	0.1413	-0.020599	0.024719	0.008392	0.12604	-0.004425	0.10117	-0.096588	-0.008392	0.001984
57.459	0.012512	-0.018158	0.065308	0.019836	0.032959	0.005493	-0.019684	0.001831	0.059204	0.083618	-0.012207	-0.015717	0.74738	-0.42786	0.014191	0.057068	0.010376	0.001221	-0.038605	-0.043335	-0.32089	-0.059662	0.11246	-0.063324	0.037231	0.012207	0.37537	-0.003357	0.063934	-0.12222	-0.003052	0.005341
57.46	0.016022	-0.020142	0.093231	-0.007935	0.035248	0.02243	-0.17258	0.00824	0.18631	-0.14618	0.002289	-0.035858	-0.018158	-0.76782	-0.025482	0.002136	-0.040588	0.042419	-0.11673	0.077667	-0.2214	0.077515	0.033875	-0.022888	0.045776	0.01709	0.25528	-0.003052	0.10651	-0.11536	-0.003662	0.000305
57.461	0.014954	-0.028992	0.025177	-0.008545	0.023041	0.063782	-0.044861	0.009155	0.18707	-0.54016	-0.005035	-0.040741	0.15106	-0.64468	-0.041504	0.011902	-0.024261	0.025177	0.016937	0.18066	-0.089874	0.12726	0.080261	-0.010529	0.046844	0.004272	0.39825	-0.011902	0.07019	0.037537	-0.002747	0.003815
57.462	0.004425	-0.069427	0.009918	-0.014038	0.010529	0.14771	0.088043	0.012207	0.016937	-0.31647	-0.013123	-0.029602	0.095978	-0.2771	-0.062103	0.023651	-0.033722	-0.005341	0.063629	0.12283	0.37506	0.16052	0.067596	-0.000916	0.037994	-0.004272	0.3865	-0.006714	0.030212	0.12894	-0.010376	-0.009766
57.463	-0.00412	-0.00946	0.008087	0.002747	0.012817	0.18845	0.075836	-0.008087	0.089264	-0.18372	-0.01297	-0.012817	-0.31464	-0.015106	-0.092621	0.010834	-0.02182	-0.028839	-0.04425	0.043945	0.38528	0.13412	0.10529	0.057068	0.040436	-0.010223	-0.50751	-0.003204	0.017853	0.12466	-0.002441	-0.007172
57.464	-0.005951	-0.001678	-0.025482	0.006256	0.010834	0.065918	0.11871	-0.017853	0.10834	-0.15686	-0.010529	-0.026855	-0.011597	0.16785	-0.084991	-0.007782	-0.010071	-0.044708	-0.26566	0.000916	0.18341	0.019226	0.086212	0.011597	0.031738	-0.018311	-0.8255	-0.00351	-0.067139	0.15457	-0.002899	-0.011292
57.465	-0.013275	-0.007782	-0.049438	0.00946	0.01236	-0.006561	0.1561	-0.019226	0.017395	-0.14511	-0.000916	-0.028687	-0.43213	0.18723	-0.025635	-0.007019	0.010529	-0.041046	-0.27161	-0.011444	0.084991	-0.050812	0.11765	-0.008392	0.037384	-0.030975	-0.59448	-0.007782	-0.17456	0.14999	-0.002747	-0.007629
57.466	-0.003357	-0.040436	-0.023193	0.001526	0.018768	0.077515	0.078125	-0.013275	-0.038147	-0.10849	0.006104	-0.014191	-0.23468	0.18829	-0.006104	0.005341	0.000916	0.013885	-0.094452	-0.007935	0.04425	-0.05249	0.072174	-0.027466	0.029144	-0.045776	-0.36575	-0.003815	-0.21973	0.10422	-0.006104	-0.012207
57.467	0.003204	-0.050507	0.010529	0.010223	0.019226	0.12375	0.02121	-0.014648	0.022125	-0.079193	-0.011292	-0.022888	-0.24826	0.14984	-0.038757	0.003815	-0.007629	-0.028381	-0.022736	-0.027313	0.020752	-0.080719	0.054321	-0.046387	0.008698	-0.032959	-0.004578	-0.000458	-0.19592	0.003357	-0.001526	-0.007019
57.468	0.007629	-0.02182	0.031281	-0.002594	0.025787	0.14358	0.005341	-0.007324	0.037384	-0.036621	0.010071	-0.033264	-0.18372	0.1828	-0.024261	-0.006256	0.004272	-0.041046	-0.061951	-0.037231	0.021973	-0.094299	0.066223	-0.093079	-0.010529	-0.014954	0.15076	-0.001984	-0.1796	-0.13718	-0.000305	-0.000916
57.469	0.004272	0.012512	0.037384	0.011597	0.027161	-0.04425	0.04837	0.002594	0.029144	-0.032043	-0.009003	-0.037842	0.097504	0.22125	0.069275	0.000916	0.007477	-0.019989	-0.19714	-0.14282	-0.008087	-0.084839	0.039215	-0.07431	0.005798	0.011139	0.010834	-0.007782	0.006561	-0.16419	0.001526	0.006256
57.47	0.001831	-0.019226	-0.023346	0.01358	0.024414	0.056	0.067291	-0.001221	0.028687	-0.018463	-0.058289	-0.023956	0.027618	0.19562	0.41916	0.003052	0.00885	-0.040283	-0.17151	-0.28549	-0.020447	-0.069885	0.054932	-0.094757	0.023041	0.014191	-0.20538	-0.004425	0.18082	-0.19638	0.008698	-0.000458
57.471	0.013733	-0.031738	-0.03479	0.005341	0.019379	0.16892	0.057373	0.007172	0.031738	-0.00351	-0.084686	-0.016327	-0.098724	0.17944	-0.01709	0.00473	-0.003662	-0.030518	0.057678	-0.3418	-0.04425	-0.052795	0.012054	-0.098114	0.026703	0.00412	-0.11414	-0.000458	0.14084	-0.21088	0	0.010529
57.472	0.001221	0.008545	0.014954	-0.017548	0.014038	0.26779	0.1004	0.007019	0.024109	-0.018463	-0.076447	-0.022125	-0.21683	0.039825	0.22079	0.002289	0.012207	0.002747	0.22781	-0.1886	0.027771	-0.040436	0.015259	-0.1059	0.015106	-0.010681	-0.16327	0.008545	-0.073547	-0.16296	-0.000305	0.006104
